<svg xmlns="http://www.w3.org/2000/svg" viewBox="0 0 561.07 907.56"><defs><style>.cls-1{fill:#ab91df;}.cls-2{fill:#fadb93;}.cls-3,.cls-7{fill:none;stroke:#000;stroke-miterlimit:10;}.cls-3{stroke-width:3.34px;}.cls-4{fill:#e2e2e2;}.cls-5{fill:#78e5e1;}.cls-6{fill:#fff;}.cls-7{stroke-width:0.63px;}</style></defs><title>apple-watch</title><g id="Layer_2" data-name="Layer 2"><g id="Layer_1-2" data-name="Layer 1"><path class="cls-1" d="M549.07,260.88h-22.7V388.27h22.7c6.6,0,12-3.83,12-8.52V269.39C561.07,264.71,555.67,260.88,549.07,260.88Z"/><path class="cls-1" d="M549.07,427.25h-22.7V517h22.7c6.6,0,12-2.7,12-6V433.25C561.07,430,555.67,427.25,549.07,427.25Z"/><path class="cls-2" d="M437.54,776.87l15.31-26.67H75.18l15.31,26.67A129.67,129.67,0,0,1,108,841.58h0c0,36.45,33.92,66,75.74,66H344.27c41.83,0,75.74-29.53,75.74-66h0A129.88,129.88,0,0,1,437.54,776.87Z"/><path class="cls-2" d="M434.73,130.69,450,157.36H72.37l15.31-26.67A129.72,129.72,0,0,0,105.21,66h0c0-36.44,33.91-66,75.74-66H341.46c41.83,0,75.74,29.54,75.74,66h0A129.82,129.82,0,0,0,434.73,130.69Z"/><rect class="cls-3" x="1.67" y="157.36" width="524.7" height="592.84" rx="71.2" ry="71.2"/><rect class="cls-4" x="26.97" y="187.79" width="472.51" height="531.98" rx="50.51" ry="50.51"/><circle class="cls-5" cx="263.22" cy="453.78" r="136.74"/><circle class="cls-6" cx="215.56" cy="636.96" r="6.88"/><circle class="cls-6" cx="234.94" cy="636.96" r="6.88"/><circle class="cls-6" cx="254.33" cy="636.96" r="6.88"/><circle class="cls-6" cx="273.71" cy="636.96" r="6.88"/><circle class="cls-6" cx="293.09" cy="636.96" r="6.88"/><circle class="cls-6" cx="312.48" cy="636.96" r="6.88"/><polygon class="cls-7" points="290.2 437.98 263.03 422.52 236.05 438.32 236.25 469.58 263.42 485.05 290.4 469.25 290.2 437.98"/><line class="cls-7" x1="264.02" y1="453.78" x2="264.02" y2="241.8"/><line class="cls-7" x1="264.02" y1="453.78" x2="476" y2="453.78"/></g></g></svg>