<svg xmlns="http://www.w3.org/2000/svg" viewBox="0 0 766.23 347.36"><defs><style>.cls-1{fill:#e2e2e2;}.cls-2{fill:#ccc;}.cls-3,.cls-4{fill:none;stroke-miterlimit:10;}.cls-3{stroke:#000;stroke-linecap:round;stroke-width:2px;}.cls-4{stroke:#ccc;stroke-width:19.81px;}.cls-5{fill:#ab8fe2;}</style></defs><title>book-stack</title><g id="Layer_2" data-name="Layer 2"><g id="Layer_2-2" data-name="Layer 2"><rect class="cls-1" y="231.05" width="766.23" height="116.31"/><rect class="cls-2" x="27.75" y="254.05" width="113.45" height="71.62"/><path class="cls-1" d="M73.36,120.78H648.27a50,50,0,0,1,50,50v1a50,50,0,0,1-50,50H73.36a0,0,0,0,1,0,0V120.78A0,0,0,0,1,73.36,120.78Z"/><rect class="cls-2" x="110.88" width="618.21" height="47.65"/><rect class="cls-1" x="62.97" y="47.78" width="677.37" height="63.67"/><circle class="cls-1" cx="685.19" cy="23.82" r="13.08"/><line class="cls-3" x1="155.04" y1="79.62" x2="644.43" y2="79.62"/><line class="cls-3" x1="148.34" y1="10.94" x2="148.34" y2="36.71"/><line class="cls-3" x1="167.76" y1="10.94" x2="167.76" y2="36.71"/><line class="cls-3" x1="187.18" y1="10.94" x2="187.18" y2="36.71"/><rect class="cls-2" x="73.36" y="57.34" width="15.41" height="44.55"/><rect class="cls-2" x="95.47" y="57.34" width="15.41" height="44.55"/><path class="cls-4" d="M41,120.78H643.41c30.17,0,54.86,22.71,54.86,50.47h0c0,27.76-24.69,50.47-54.86,50.47H41"/><polygon class="cls-5" points="501.86 266.12 486.14 238.91 470.43 266.12 470.43 157.86 501.86 157.86 501.86 266.12"/><line class="cls-4" x1="176.65" y1="289.86" x2="699.31" y2="289.86"/></g></g></svg>