<svg xmlns="http://www.w3.org/2000/svg" viewBox="0 0 76.1 94.31"><defs><style>.cls-1{fill:#e2e2e2;}.cls-2{fill:#78e5e1;}.cls-3{fill:none;stroke:#000;stroke-miterlimit:10;stroke-width:0.41px;}.cls-4{opacity:0.57;}.cls-5{fill:#fadb93;}</style></defs><title>calculator</title><g id="Layer_2" data-name="Layer 2"><g id="Layer_2-2" data-name="Layer 2"><rect class="cls-1" x="12.88" y="6.72" width="56.05" height="83.15" transform="translate(-8.19 8.35) rotate(-10.61)"/><rect class="cls-2" x="16.06" y="45.03" width="7.18" height="7.18" transform="translate(-8.61 4.45) rotate(-10.61)"/><rect class="cls-2" x="51.35" y="38.42" width="7.18" height="7.18" transform="translate(-6.79 10.83) rotate(-10.61)"/><rect class="cls-2" x="39.59" y="40.62" width="7.18" height="7.18" transform="translate(-7.4 8.7) rotate(-10.61)"/><rect class="cls-2" x="27.82" y="42.82" width="7.18" height="7.18" transform="matrix(0.98, -0.18, 0.18, 0.98, -8.01, 6.58)"/><rect class="cls-2" x="14.04" y="34.25" width="7.18" height="7.18" transform="translate(-6.66 3.89) rotate(-10.61)"/><rect class="cls-2" x="49.33" y="27.64" width="7.18" height="7.18" transform="translate(-4.84 10.28) rotate(-10.61)"/><rect class="cls-2" x="37.57" y="29.84" width="7.18" height="7.18" transform="translate(-5.45 8.15) rotate(-10.61)"/><rect class="cls-2" x="25.8" y="32.05" width="7.18" height="7.18" transform="matrix(0.98, -0.18, 0.18, 0.98, -6.06, 6.02)"/><rect class="cls-3" x="7.41" y="4.69" width="56.05" height="83.15" transform="translate(-7.91 7.31) rotate(-10.61)"/><rect class="cls-3" x="8.59" y="12.16" width="43.09" height="11.53" transform="translate(-2.78 5.85) rotate(-10.61)"/><rect class="cls-3" x="11.63" y="32.28" width="7.18" height="7.18" transform="translate(-6.34 3.42) rotate(-10.61)"/><rect class="cls-3" x="46.93" y="25.67" width="7.18" height="7.18" transform="translate(-4.52 9.8) rotate(-10.61)"/><rect class="cls-3" x="35.16" y="27.87" width="7.18" height="7.18" transform="matrix(0.98, -0.18, 0.18, 0.98, -5.13, 7.67)"/><rect class="cls-3" x="23.4" y="30.08" width="7.18" height="7.18" transform="translate(-5.74 5.54) rotate(-10.61)"/><rect class="cls-3" x="13.73" y="43.46" width="7.18" height="7.18" transform="translate(-8.36 3.99) rotate(-10.61)"/><rect class="cls-3" x="49.02" y="36.85" width="7.18" height="7.18" transform="translate(-6.55 10.38) rotate(-10.61)"/><rect class="cls-3" x="37.26" y="39.05" width="7.18" height="7.18" transform="translate(-7.15 8.25) rotate(-10.61)"/><rect class="cls-3" x="25.49" y="41.26" width="7.18" height="7.18" transform="matrix(0.98, -0.18, 0.18, 0.98, -7.76, 6.12)"/><g class="cls-4"><rect class="cls-5" x="18.16" y="56.24" width="7.18" height="7.18" transform="matrix(0.98, -0.18, 0.18, 0.98, -10.64, 5.03)"/><rect class="cls-5" x="53.45" y="49.63" width="7.18" height="7.18" transform="translate(-8.82 11.41) rotate(-10.61)"/><rect class="cls-5" x="41.69" y="51.83" width="7.18" height="7.18" transform="translate(-9.43 9.28) rotate(-10.61)"/><rect class="cls-5" x="29.92" y="54.03" width="7.18" height="7.18" transform="translate(-10.03 7.15) rotate(-10.61)"/></g><rect class="cls-3" x="15.82" y="54.64" width="7.18" height="7.18" transform="matrix(0.98, -0.18, 0.18, 0.98, -10.39, 4.57)"/><rect class="cls-3" x="51.12" y="48.03" width="7.18" height="7.18" transform="matrix(0.98, -0.18, 0.18, 0.98, -8.57, 10.95)"/><rect class="cls-3" x="39.35" y="50.23" width="7.18" height="7.18" transform="translate(-9.17 8.82) rotate(-10.61)"/><rect class="cls-3" x="27.59" y="52.44" width="7.18" height="7.18" transform="matrix(0.98, -0.18, 0.18, 0.98, -9.78, 6.7)"/><g class="cls-4"><rect class="cls-5" x="20.25" y="67.41" width="7.18" height="7.18" transform="matrix(0.98, -0.18, 0.18, 0.98, -12.66, 5.6)"/><rect class="cls-5" x="55.54" y="60.8" width="7.18" height="7.18" transform="translate(-10.84 11.99) rotate(-10.61)"/><rect class="cls-5" x="43.78" y="63" width="7.18" height="7.18" transform="translate(-11.45 9.86) rotate(-10.61)"/><rect class="cls-5" x="32.01" y="65.2" width="7.18" height="7.18" transform="translate(-12.06 7.73) rotate(-10.61)"/></g><rect class="cls-3" x="17.91" y="65.81" width="7.18" height="7.18" transform="translate(-12.41 5.14) rotate(-10.61)"/><rect class="cls-3" x="53.21" y="59.2" width="7.18" height="7.18" transform="translate(-10.59 11.53) rotate(-10.61)"/><rect class="cls-3" x="41.44" y="61.4" width="7.18" height="7.18" transform="translate(-11.19 9.4) rotate(-10.61)"/><rect class="cls-3" x="29.68" y="63.61" width="7.18" height="7.18" transform="matrix(0.98, -0.18, 0.18, 0.98, -11.8, 7.27)"/></g></g></svg>