<?xml version="1.0" encoding="utf-8"?>
<!-- Generator: Adobe Illustrator 25.3.1, SVG Export Plug-In . SVG Version: 6.00 Build 0)  -->
<svg version="1.1" id="Слой_1" xmlns="http://www.w3.org/2000/svg" xmlns:xlink="http://www.w3.org/1999/xlink" x="0px" y="0px"
	 viewBox="0 0 3212.9 2982.4" style="enable-background:new 0 0 3212.9 2982.4;" xml:space="preserve">
<style type="text/css">
	.st0{fill:none;stroke:#FFCF2D;stroke-width:6;stroke-linecap:round;stroke-miterlimit:10;}
	.st1{fill:none;stroke:#66B0F0;stroke-width:6;stroke-linecap:round;stroke-linejoin:round;stroke-miterlimit:10;}
	.st2{fill:#FFFFFF;stroke:#66B0F0;stroke-width:6;stroke-miterlimit:10;}
	.st3{fill:#FFFFFF;stroke:#FFCF2D;stroke-width:6;stroke-miterlimit:10;}
	.st4{fill:#31A1A9;}
	.st5{fill:#E57281;}
	.st6{fill:#FFFFFF;stroke:#FE5244;stroke-width:6;stroke-miterlimit:10;}
	.st7{fill:none;stroke:#FE5244;stroke-width:6;stroke-miterlimit:10;}
	.st8{fill:#3FB1B5;}
	.st9{fill:none;stroke:#FFFFFF;stroke-width:6;stroke-miterlimit:10;}
	.st10{fill:#73325A;}
	.st11{fill:none;stroke:#FE5244;stroke-width:6;stroke-linecap:round;stroke-miterlimit:10;}
	.st12{fill:#9A3B82;}
	.st13{fill:#FFCF2D;}
	.st14{fill:none;stroke:#FFCF2D;stroke-width:6;stroke-miterlimit:10;}
	.st15{fill:#FE5244;}
	.st16{fill:#FFCF2D;stroke:#FFCF2D;stroke-width:6;stroke-miterlimit:10;}
	.st17{fill:#FFFFFF;}
	.st18{fill:none;stroke:#FE5244;stroke-width:5;stroke-miterlimit:10;}
	.st19{fill:#66B0F0;}
	.st20{fill:none;stroke:#FFFFFF;stroke-width:5;stroke-linecap:round;stroke-miterlimit:10;}
	.st21{fill:none;stroke:#FFFFFF;stroke-width:5;stroke-miterlimit:10;}
	.st22{fill:#FFFFFF;stroke:#66B0F0;stroke-width:6;stroke-linejoin:round;stroke-miterlimit:10;}
	.st23{fill:none;stroke:#66B0F0;stroke-width:6;stroke-miterlimit:10;}
	.st24{fill:none;stroke:#9A3B82;stroke-width:5;stroke-linecap:round;stroke-miterlimit:10;}
	.st25{fill:none;stroke:#FFCF2D;stroke-width:5;stroke-linecap:round;stroke-miterlimit:10;}
	.st26{fill:#3FB1B5;stroke:#FFFFFF;stroke-width:5;stroke-miterlimit:10;}
</style>
<g id="CHARACTER_x27_S_LEGS">
	<line id="SHADOW" class="st0" x1="1189.2" y1="2763" x2="2325.2" y2="2763"/>
	<g id="CHAIR">
		<path class="st1" d="M1756.8,1758.1v445c0,137,71,264.2,187.6,336.1l164.1,101.2"/>
		<path class="st1" d="M1667.9,1758.1v445c0,137-71,264.2-187.6,336.1l-164.1,101.2"/>
		<path class="st2" d="M1608.2,1758.1h200.1c17.7,0,32-14.3,32-32v-50.5h-264.1v50.5C1576.2,1743.8,1590.5,1758.1,1608.2,1758.1z"/>
		<path class="st3" d="M2115.9,2763c-40.6,0-73.5-32.9-73.5-73.5s32.9-73.5,73.5-73.5s73.5,32.9,73.5,73.5
			C2189.4,2730.1,2156.5,2763,2115.9,2763"/>
		<path class="st3" d="M1314.6,2763c-40.6,0-73.5-32.9-73.5-73.5s32.9-73.5,73.5-73.5s73.5,32.9,73.5,73.5
			C1388.1,2730.1,1355.2,2763,1314.6,2763"/>
		<path class="st3" d="M1314.6,2747.5c-32,0-58-26-58-58s26-58,58-58s58,26,58,58S1346.6,2747.5,1314.6,2747.5"/>
		<path class="st3" d="M2115.6,2747.5c-32,0-58-26-58-58s26-58,58-58s58,26,58,58S2147.6,2747.5,2115.6,2747.5"/>
		<path class="st1" d="M1604.3,2418.1c0,0,95.2-69.8,216.3,0"/>
	</g>
	<g id="RIGHT_LEG">
		<path class="st4" d="M1754.5,1635.7l-92,941.3H1946l233.1-847c42.9-138.2-49.4-278.8-193.1-279.1h-20
			C1859.6,1450.6,1769.4,1529.5,1754.5,1635.7z"/>
		<path class="st5" d="M1717.9,2577h149.4l-23.5,76.9c-29.5-29.4-70.6-50.6-115.5-53.3c-4.2-0.3-8.3-0.4-12.4-0.4L1717.9,2577z"/>
		<path class="st6" d="M1889.3,2762.4c7.8-72.4-68.6-156.2-161.1-161.9s-149.6,55.4-154.1,128c-0.7,11-1.7,24.4,0.7,34.2
			L1889.3,2762.4z"/>
		<polyline class="st7" points="1576.8,2736.1 1576.8,2736.1 1889.3,2739.8 		"/>
	</g>
	<g id="LEFT_LEG">
		<path class="st8" d="M1835.1,2577l236.5-144l-528.8-885.9c-66.9-106.1-236.7-138.9-343.8-73.7l0,0
			c-123.5,75.2-147.7,244.3-50.3,351.1L1835.1,2577z"/>
		<path class="st9" d="M1836.1,2573l237.5-142l-529.8-883.9c-66.9-106.1-236.7-138.9-343.8-73.7l0,0
			c-123.5,75.2-147.7,244.3-50.3,351.1L1836.1,2573z"/>
		<path class="st10" d="M2067.9,2426.7c-10.5-17.4-72,0.3-137.4,39.7c-65.4,39.3-109.7,86.7-99.2,104.1s71.8-1.7,137.2-41
			C2033.8,2490.2,2078.3,2444.2,2067.9,2426.7z"/>
		<path class="st5" d="M2053.5,2539.3l-110.4,69.4l-31.2-35l-9.5-10.7l-39.6-44.4c17-17.4,40.3-35.8,67.8-52.2
			c22.2-13.3,44.1-23.9,63.9-31.1l30.9,54.3l6.8,11.9L2053.5,2539.3z"/>
		<path class="st6" d="M2227.7,2614.6l-275,148.3l0,0c-6.9-7.4-12.8-16.1-17.5-26c-4-8.3-7.1-17-9.5-25.8
			c-16.2-60.8,6.7-130.5,79.8-165.3c64.5-30.7,144.8-13.1,191.2,27.3C2210.4,2585.2,2221.2,2599.3,2227.7,2614.6z"/>
		<line class="st11" x1="2213" y1="2592.1" x2="1937.9" y2="2740.4"/>
		<path class="st12" d="M2025.2,2489.5c-15.8,13.2-35.2,27-56.9,40c-23.2,14-46,25.4-66.1,33.5l-41.6-44.4
			c17-17.4,42.3-35.8,69.8-52.2c22.2-13.3,44.1-24.9,63.9-32.1L2025.2,2489.5z"/>
		<path class="st9" d="M2061.8,2411.3c-10.5-17.4-76.9-0.1-143.4,39.9s-108.7,86.9-98.2,104.3"/>
	</g>
</g>
<g id="TABLE">
	<path class="st12" d="M2982.4,1675.6c26.1,0,47.3-21.2,47.3-47.3v-181c0-26.1-21.2-47.3-47.3-47.3H352c-26.1,0-47.3,21.2-47.3,47.3
		v181c0,26.1,21.2,47.3,47.3,47.3H2982.4z"/>
	<path class="st3" d="M2981.6,1359H352.7c-26.1,0-47.3,21.2-47.3,47.3v181c0,26.1,21.2,47.3,47.3,47.3h2628.9
		c26.1,0,47.3-21.2,47.3-47.3v-181C3028.9,1380.2,3007.7,1359,2981.6,1359z"/>
	<line class="st0" x1="2844.7" y1="1634.8" x2="2844.7" y2="2763.4"/>
	<line class="st0" x1="549.8" y1="1634.8" x2="549.8" y2="2763.4"/>
</g>
<g id="PLANT">
	<g>
		<g>
			<path class="st12" d="M463.4,2482.5l-4.2,2.7l-152.6-235.1l-45.9,3.5c-9.8,0.8-17.6-8.1-15.6-17.8c2.1-9.6,12.8-14.6,21.5-9.8
				l37.7,20.7l-27.7-42.8l-45.9,3.6c-9.8,0.8-17.6-8.2-15.5-17.8s12.8-14.6,21.5-9.8l37.7,20.6l-27.7-42.8l-45.9,3.6
				c-9.8,0.8-17.6-8.2-15.5-17.8s12.8-14.6,21.5-9.8l37.7,20.7l-16.7-25.7l-31-26.5c-7.5-6.4-6.7-18.2,1.5-23.6
				c8.3-5.4,19.4-1.3,22.2,8.2l11.5,39.1l17.2,26.5l-3.6-44c-0.8-9.8,8.1-17.6,17.7-15.6c9.6,2,14.6,12.8,9.9,21.4l-22.2,41
				l28.1,43.3l-3.6-43.9c-0.8-9.8,8.1-17.6,17.7-15.6s14.6,12.8,9.9,21.4l-22.2,41l28.1,43.3l-3.6-43.9c-0.8-9.8,8.1-17.7,17.7-15.6
				c9.6,2,14.6,12.8,9.9,21.4l-22.2,41L463.4,2482.5z"/>
		</g>
	</g>
	<g>
		<path class="st12" d="M719.8,2399.4c-73.3,147.7-172.3,250.4-230.8,243.3c-4.8-0.6-9.3-1.9-13.5-4c-55.6-27.6-36.4-179.5,43-339.3
			c34-68.5,73.5-127.2,111.9-169.9c51.3-56.9,100.6-85.2,132.4-69.4C818.4,2087.7,799.1,2239.6,719.8,2399.4z"/>
		<path class="st13" d="M628,2282.7c-16.3,187.2-76.2,338.2-138.9,360c-4.8-0.6-9.3-1.9-13.5-4c-55.6-27.6-36.4-179.5,43-339.3
			c34-68.5,73.5-127.2,111.9-169.9C633.3,2176.6,632.7,2228.5,628,2282.7z"/>
		<line class="st14" x1="762.8" y1="2060.1" x2="489.1" y2="2642.7"/>
	</g>
	<g>
		<g>
			<path class="st13" d="M757.6,2492.1l-38.7,13l-25.8,18.1l43.8-5.2c9.8-1.2,17.9,7.4,16.3,17.1l0,0c-1.7,9.7-12.2,15.1-21.1,10.7
				l-41.8-20.7l-42.3,29.7l43.8-5.2c9.8-1.2,17.9,7.4,16.3,17.1c-1.7,9.7-12.2,15.1-21.1,10.7l-41.8-20.7l-42.2,29.7l43.8-5.2
				c9.8-1.2,17.9,7.4,16.2,17.1c-1.7,9.7-12.2,15.1-21.1,10.7l-41.8-20.7l-77.3,54.3h-8.7l83.3-58.5l-5.2-45.7
				c-1.1-9.8,7.5-17.9,17.2-16.2s15,12.3,10.6,21.1l-19.3,38.5l41.7-29.3l-5.2-45.7c-1.1-9.8,7.5-17.9,17.2-16.2s15,12.3,10.6,21.1
				l-19.2,38.4l41.7-29.3l-5.2-45.7c-1.1-9.8,7.5-17.9,17.2-16.2s15,12.3,10.6,21.1l-19.3,38.5l25.1-17.6l25.3-32
				c6.1-7.7,18-7.4,23.6,0.7C770.7,2477.7,767,2489,757.6,2492.1z"/>
		</g>
	</g>
	<g>
		<path class="st3" d="M443.9,2634.9c-5,1.7-10.3,2.9-15.7,3.6c-63,8.2-150-50.6-202.6-139.9c-57.1-97-51.9-193.2,11.6-215
			c20.6-7.1,44.9-5.4,70.1,3.4c52.6,18.3,109.6,67.3,148.2,132.8C512.5,2516.9,507.3,2613.1,443.9,2634.9z"/>
		<path class="st13" d="M443.9,2634.9c-5,1.7-10.3,2.9-15.7,3.6c-58.2-26.4-108.8-138.2-119.5-274c-2.1-26.8-2.5-52.8-1.4-77.5
			c52.6,18.3,109.6,67.3,148.2,132.8C512.5,2516.9,507.3,2613.1,443.9,2634.9z"/>
		<line class="st14" x1="213.1" y1="2297.7" x2="428.1" y2="2638.5"/>
	</g>
	<g>
		<ellipse class="st3" cx="469.5" cy="2271.8" rx="126" ry="374.9"/>
		<line class="st14" x1="469.5" y1="1896.8" x2="469.5" y2="2646.7"/>
		<polyline class="st0" points="549.8,1986.7 469.5,2094.3 401.4,1959.5 		"/>
		<polyline class="st0" points="575.9,2077.9 468.7,2225.3 372.3,2038.8 		"/>
		<polyline class="st0" points="592.6,2183.1 467.7,2355.3 353.6,2135.3 		"/>
		<polyline class="st0" points="600.4,2323.5 468.3,2508.3 343.8,2272.1 		"/>
	</g>
	<path class="st2" d="M656.3,2763.4H282.4c-28.8,0-52.2-23.4-52.2-52.2v-16.3c0-28.8,23.4-52.2,52.2-52.2h373.9
		c28.8,0,52.2,23.4,52.2,52.2v16.3C708.5,2740.1,685.1,2763.4,656.3,2763.4z"/>
</g>
<g id="BOOKS">
	<path class="st15" d="M2857.5,1464.1L2857.5,1464.1c0,14.9-11.9,27-26.5,27h-407.3c-14.7,0-26.5-12.1-26.5-27l0,0
		c0-14.9,11.9-27,26.5-27H2831C2845.6,1437.1,2857.5,1449.2,2857.5,1464.1z"/>
	<g>
		<path class="st3" d="M2685.6,1182.9h-166.7v116h322l0,0C2820.5,1230.1,2757.3,1182.9,2685.6,1182.9z"/>
		<polygon class="st16" points="2548.9,1182.9 2548.9,1298.9 2479.9,1299 2479.9,1182.9 		"/>
		<path class="st14" d="M3096.2,1296.6l-255.3,2.3c0,0,63.9-86.6,239.3-63.7c0,0-137.2-28.6-276.4,0"/>
		<path class="st14" d="M2840.9,1298.9c0,0,111.9-61.5,248.3-31.7"/>
	</g>
	<g>
		<path class="st13" d="M2869.4,1393.8c0,10.9,1.7,20.8,4.4,28.1h-122.5c-6.3,0-11.5-5.5-11.5-12.2V1378c0-6.8,5.1-12.2,11.5-12.2
			h122.5C2871.1,1373,2869.4,1382.9,2869.4,1393.8z"/>
		<path class="st17" d="M2739.9,1378v31.7c0,6.8,5.5,12.2,12.2,12.2h131.6v2.3c0,5.6-4.5,10.1-10.1,10.1h-460.3
			c-5.6,0-10.1-4.5-10.1-10.1v-60.8c0-5.6,4.5-10.1,10.1-10.1h460.3c5.6,0,10.1,4.5,10.1,10.1v2.3h-131.6
			C2745.4,1365.8,2739.9,1371.2,2739.9,1378z"/>
		<path class="st14" d="M2739.9,1378v31.7c0,6.8,5.5,12.2,12.2,12.2h131.6v2.3c0,5.6-4.5,10.1-10.1,10.1h-460.3
			c-5.6,0-10.1-4.5-10.1-10.1v-60.8c0-5.6,4.5-10.1,10.1-10.1h460.3c5.6,0,10.1,4.5,10.1,10.1v2.3h-131.6
			C2745.4,1365.8,2739.9,1371.2,2739.9,1378z"/>
	</g>
	<g>
		<path class="st13" d="M2568.4,1512.8c-4.8,4.5-7.8,12.7-7.8,19.6c0,13.7,12,27.8,26.8,27.8h368.8l0,0c0,6.4-5.2,11.7-11.7,11.7
			h-445.1c-11.9,0-22.7-4.5-30.5-11.7s-12.7-17.2-12.7-28.3c0-22.1,19.3-40,43.2-40h445.1c6.4,0,11.7,5.2,11.7,11.7v2.1h-368.8
			C2579.9,1505.6,2573.2,1508.4,2568.4,1512.8z"/>
		<path class="st15" d="M2929.5,1505.6v53.6h26.6v4.5h-370c-4.1,0-8.1-0.8-11.7-2.3l0,0c-3.9-1.6-7.5-3.9-10.4-6.9
			c-5.7-5.7-9.2-13.5-9.2-22.1c0-17.3,14-31.3,31.3-31.3h370v4.5L2929.5,1505.6L2929.5,1505.6z"/>
		<path class="st17" d="M2939.8,1505.6v53.6h-352.4c-14.8,0-26.8-12-26.8-26.8c0-7.4,3-14.1,7.8-19c4.8-4.8,11.5-7.8,18.9-7.8
			L2939.8,1505.6L2939.8,1505.6z"/>
		<line class="st18" x1="2939.8" y1="1505.6" x2="2939.8" y2="1559.2"/>
		<path class="st15" d="M2636.5,1543.6v44.7h-30.9v-39c0-9.3-7.5-16.9-16.9-16.9h-13.8v-5.7h44.7
			C2629,1526.7,2636.5,1534.3,2636.5,1543.6z"/>
	</g>
	<g>
		<path class="st19" d="M2957.6,1301.4h-525.4c-13.6,0-24.6,11-24.6,24.6l0,0c0.1,13.5,11,24.5,24.6,24.5h525.4
			c13.6,0,24.6-11,24.6-24.6l0,0C2982.1,1312.4,2971.1,1301.4,2957.6,1301.4z"/>
		<g>
			<g>
				<path class="st12" d="M2838.4,1350.6h-5.3c0.6,1.6,2.1,5.6,5.4,5.6c2,0,11.8-1.5,11.8-30.2c0-10.2-1.2-18-3.6-23.3
					c-2.9-6.3-6.7-7-8.1-7c-3.4,0-4.9,4.1-5.5,5.7h5.3c0.2-0.4,0.4-0.6,0.5-0.7c1.8,0.5,6.6,5.5,6.6,25.3s-4.8,24.7-6.6,25.3
					C2838.7,1351.1,2838.5,1350.9,2838.4,1350.6z"/>
			</g>
			<g>
				<path class="st12" d="M2881.8,1350.6h-5.3c0.6,1.6,2.1,5.6,5.4,5.6c2,0,11.8-1.5,11.8-30.2c0-10.2-1.2-18-3.6-23.3
					c-2.9-6.3-6.7-7-8.1-7c-3.4,0-4.9,4.1-5.5,5.7h5.3c0.2-0.4,0.4-0.6,0.5-0.7c1.8,0.5,6.6,5.5,6.6,25.3s-4.8,24.7-6.6,25.3
					C2882.2,1351.1,2882,1350.9,2881.8,1350.6z"/>
			</g>
			<g>
				<path class="st12" d="M2925.3,1350.6h-5.3c0.6,1.6,2.1,5.6,5.4,5.6c2.8,0,11.8-2.2,11.8-30.2c0-28.1-9-30.2-11.8-30.2
					c-3.4,0-4.9,4.1-5.5,5.7h5.3c0.2-0.4,0.4-0.6,0.5-0.7c2,0.5,6.6,5.7,6.6,25.3c0,12-1.7,18.2-3.2,21.4c-1.2,2.6-2.5,3.7-3.4,3.9
					C2925.6,1351.1,2925.5,1350.9,2925.3,1350.6z"/>
			</g>
			<g>
				<path class="st12" d="M2707.9,1350.6h-5.3c0.6,1.6,2.1,5.6,5.4,5.6c2,0,11.8-1.5,11.8-30.2c0-28.1-9-30.2-11.8-30.2
					c-3.4,0-4.9,4.1-5.5,5.7h5.3c0.2-0.4,0.4-0.6,0.5-0.7c2,0.5,6.6,5.7,6.6,25.3c0,19.8-4.8,24.7-6.6,25.3
					C2708.3,1351.1,2708.1,1350.9,2707.9,1350.6z"/>
			</g>
			<g>
				<path class="st12" d="M2751.4,1350.6h-5.3c0.6,1.6,2.1,5.6,5.4,5.6c1.9,0,5.4-0.8,8.1-6.4c2.4-5.1,3.7-13.1,3.7-23.8
					c0-10.7-1.2-18.7-3.7-23.8c-2.7-5.6-6.2-6.4-8.1-6.4c-3.4,0-4.9,4.1-5.5,5.7h5.3c0.2-0.4,0.4-0.6,0.5-0.7
					c1.2,0.2,2.4,1.5,3.4,3.6c1.4,3,3.2,9.2,3.2,21.7c0,12.4-1.7,18.6-3.2,21.7c-1,2.1-2.3,3.4-3.4,3.6
					C2751.7,1351.1,2751.6,1350.9,2751.4,1350.6z"/>
			</g>
			<g>
				<path class="st12" d="M2794.9,1350.6h-5.3c0.6,1.6,2.1,5.6,5.4,5.6c2.8,0,11.8-2.2,11.8-30.2c0-28.8-9.8-30.2-11.8-30.2
					c-3.4,0-4.9,4.1-5.5,5.7h5.3c0.2-0.4,0.4-0.6,0.5-0.7c1.8,0.5,6.6,5.5,6.6,25.3c0,19.6-4.6,24.8-6.6,25.3
					C2795.2,1351.1,2795.1,1350.9,2794.9,1350.6z"/>
			</g>
			<g>
				<path class="st12" d="M2577.5,1350.6h-5.3c0.6,1.6,2.1,5.6,5.4,5.6c1.5,0,5.3-0.7,8.1-7c2.4-5.2,3.6-13.1,3.6-23.3
					c0-9.4-1.3-17.3-3.6-22.7c-2.1-4.8-5.1-7.6-8.2-7.6c-3.4,0-4.9,4.1-5.5,5.7h5.3c0.2-0.3,0.3-0.6,0.4-0.7c0.6,0.3,2,1.4,3.4,4.6
					c1.5,3.3,3.2,9.6,3.2,20.6c0,19.8-4.8,24.7-6.6,25.3C2577.8,1351.1,2577.7,1350.9,2577.5,1350.6z"/>
			</g>
			<g>
				<path class="st12" d="M2621,1350.6h-5.3c0.6,1.6,2.1,5.6,5.4,5.6c1.5,0,5.3-0.7,8.1-7c2.4-5.2,3.6-13.1,3.6-23.3
					c0-28.1-9-30.2-11.8-30.2c-3.4,0-4.9,4.1-5.5,5.7h5.3c0.2-0.4,0.4-0.6,0.5-0.7c2,0.5,6.6,5.7,6.6,25.3c0,19.8-4.8,24.7-6.6,25.3
					C2621.3,1351.1,2621.2,1350.9,2621,1350.6z"/>
			</g>
			<g>
				<path class="st12" d="M2664.5,1350.6h-5.3c0.6,1.6,2.1,5.6,5.4,5.6c2.8,0,11.8-2.2,11.8-30.2c0-10.7-1.2-18.7-3.7-23.8
					c-2.7-5.6-6.2-6.4-8.1-6.4c-3.4,0-4.9,4.1-5.5,5.7h5.3c0.2-0.4,0.4-0.6,0.5-0.7c1.2,0.2,2.4,1.5,3.4,3.6c1.4,3,3.2,9.2,3.2,21.7
					c0,19.6-4.6,24.8-6.6,25.3C2664.8,1351.1,2664.6,1350.9,2664.5,1350.6z"/>
			</g>
			<g>
				<path class="st12" d="M2447.1,1350.6h-5.3c0.6,1.6,2.1,5.6,5.4,5.6c3.1,0,6-2.8,8.2-7.6c2.4-5.4,3.6-13.2,3.6-22.7
					c0-11.1-2-18.1-3.6-22c-2.2-5.2-5.2-8.2-8.2-8.2c-3.4,0-4.9,4.1-5.5,5.7h5.3c0.2-0.3,0.3-0.5,0.4-0.7c0.7,0.4,2.2,1.8,3.6,5.6
					c1.4,3.5,3,9.7,3,19.6c0,11.1-1.7,17.3-3.2,20.7c-1.4,3.2-2.8,4.3-3.4,4.6C2447.4,1351.1,2447.2,1350.9,2447.1,1350.6z"/>
			</g>
			<g>
				<path class="st12" d="M2490.5,1350.6h-5.3c0.6,1.6,2.1,5.6,5.4,5.6c3.1,0,6-2.8,8.2-7.6c2.4-5.4,3.6-13.2,3.6-22.7
					c0-19.6-6.1-30.2-11.8-30.2c-3.4,0-4.9,4.1-5.5,5.7h5.3c0.2-0.3,0.3-0.5,0.4-0.7c0.7,0.4,2.1,1.8,3.6,5.4c1.4,3.4,3,9.7,3,19.8
					c0,11.1-1.7,17.3-3.2,20.7c-1.4,3.2-2.8,4.3-3.4,4.6C2490.8,1351.1,2490.7,1350.9,2490.5,1350.6z"/>
			</g>
			<g>
				<path class="st12" d="M2534,1350.6h-5.3c0.6,1.6,2.1,5.6,5.4,5.6c1.5,0,5.2-0.7,8.2-7.4c2.4-5.4,3.6-13.1,3.6-22.8
					c0-9.4-1.3-17.3-3.6-22.7c-2.1-4.8-5.1-7.6-8.2-7.6c-3.4,0-4.9,4.1-5.5,5.7h5.3c0.2-0.3,0.3-0.6,0.4-0.7c0.6,0.3,2,1.4,3.4,4.6
					c1.5,3.3,3.2,9.6,3.2,20.6c0,11.3-1.7,17.5-3.2,20.8c-1.4,3.1-2.8,4.2-3.4,4.4C2534.3,1351.1,2534.2,1350.9,2534,1350.6z"/>
			</g>
		</g>
	</g>
</g>
<g id="CLOCK">
	<path class="st13" d="M2772,598.5h-350.6c-20.3,0-36.7-16.4-36.7-36.7V211.2c0-20.3,16.4-36.7,36.7-36.7H2772
		c20.3,0,36.7,16.4,36.7,36.7v350.6C2808.7,582.1,2792.2,598.5,2772,598.5z"/>
	<path class="st3" d="M2746.4,575h-357.5c-20.3,0-36.7-16.4-36.7-36.7V180.8c0-20.3,16.4-36.7,36.7-36.7h357.5
		c20.3,0,36.7,16.4,36.7,36.7v357.5C2783.1,558.6,2766.7,575,2746.4,575z"/>
	<circle class="st14" cx="2567.7" cy="359.5" r="165"/>
	<polyline class="st0" points="2474.9,288.7 2567.7,359.5 2544.9,289.6 	"/>
</g>
<g id="PAPER">
	<polygon class="st13" points="2273.9,1634.6 1991.2,1634.6 1872.5,1492 2148.4,1492 	"/>
	<g>
		<g>
			<path class="st2" d="M2427,1642v88l-224,0.9c-28.7,0.1-52-23.1-52-51.8v-27.3c0-18.2-6.7-35.7-18.7-49.2l-73.9-83h275.9
				l70.6,69.7C2419.1,1603.2,2427,1622.1,2427,1642z"/>
		</g>
		<path class="st2" d="M2527.8,1699c-9.5,19-29.1,32-51.8,32h-276c22.6,0,42.2-13,51.8-32H2527.8z"/>
	</g>
</g>
<g id="CHARACTER">
	<g id="HOODY">
		<path class="st15" d="M2356.7,1150.9l-168.4-295.8c-40.2-70.7-115.3-114.3-196.6-114.3H1361l22.1-47.7c-1.8,3.9-11.3,4.9-25.8,2.9
			c-22.2-3-56-12.7-92-28.7c-20.6-9.1-39.3-18.6-54.8-27.4c-29.3-16.7-47-31.3-44.1-37.8l-322,528.1
			c-70.7,103.1,3.1,243.2,128.1,243.2c16.8,0,33.4-2.7,49.2-8c15.8-5.3,30.7-13.1,44.1-23.2l247.3-185.9
			c14.9-11.2,36.2-2.5,39.2,15.8l32.3,201.3h842.6C2341.5,1373.5,2413.2,1250.1,2356.7,1150.9z M1981.9,1174l27-61.4
			c4.6-10.5,19.4-10.7,24.2-0.3l29.3,61.8L1981.9,1174L1981.9,1174z"/>
		<path class="st7" d="M1461.4,740.6c0-51.7,106.7-115.6,236.1-131.9c194.1-24.3,236.1,80.2,236.1,131.9"/>
		<path class="st15" d="M1911.2,741.5c0,46.3-213.7,141.1-213.7,141.1s-213.7-94.8-213.7-141.1c0-46.3,101.6-99.9,218.7-114.2
			C1871,606.7,1911.2,695.1,1911.2,741.5z"/>
		<path class="st17" d="M1911.2,741.5c0,46.3-213.7,141.1-213.7,141.1s-213.7-94.8-213.7-141.1c0-0.2,0-0.4,0-0.6h427.4
			C1911.2,741,1911.2,741.2,1911.2,741.5z"/>
		<path class="st9" d="M1933.5,740.5c0,51.1-236,167.3-236,167.3s-236-116.1-236-167.3"/>
		<path class="st20" d="M1879.6,1371.2c13.2,0,23.9-43.7,23.9-97.5s-10.7-97.5-23.9-97.5"/>
		<line class="st21" x1="1378.2" y1="712.7" x2="1193.1" y2="1082.8"/>
		<line class="st20" x1="1338" y1="1074.3" x2="1368.6" y2="1275.7"/>
		<g>
			<g>
				<line class="st20" x1="1687.5" y1="931.5" x2="1707.5" y2="931.5"/>
				<line class="st20" x1="1687.5" y1="955.3" x2="1707.5" y2="955.3"/>
				<line class="st20" x1="1687.5" y1="979" x2="1707.5" y2="979"/>
				<line class="st20" x1="1687.5" y1="1002.7" x2="1707.5" y2="1002.7"/>
				<line class="st20" x1="1687.5" y1="1026.4" x2="1707.5" y2="1026.4"/>
				<line class="st20" x1="1687.5" y1="1050.2" x2="1707.5" y2="1050.2"/>
				<line class="st20" x1="1687.5" y1="1051.3" x2="1707.5" y2="1051.3"/>
				<line class="st20" x1="1687.5" y1="1075" x2="1707.5" y2="1075"/>
				<line class="st20" x1="1687.5" y1="1098.7" x2="1707.5" y2="1098.7"/>
				<line class="st20" x1="1687.5" y1="1121.3" x2="1707.5" y2="1121.3"/>
				<line class="st20" x1="1687.5" y1="1145.1" x2="1707.5" y2="1145.1"/>
				<line class="st20" x1="1687.5" y1="1168.8" x2="1707.5" y2="1168.8"/>
				<line class="st20" x1="1687.5" y1="1192.5" x2="1707.5" y2="1192.5"/>
				<line class="st20" x1="1687.5" y1="1216.2" x2="1707.5" y2="1216.2"/>
				<line class="st20" x1="1687.5" y1="1240" x2="1707.5" y2="1240"/>
				<line class="st20" x1="1687.5" y1="1263.7" x2="1707.5" y2="1263.7"/>
				<line class="st20" x1="1687.5" y1="1287.4" x2="1707.5" y2="1287.4"/>
				<line class="st20" x1="1687.5" y1="1311.1" x2="1707.5" y2="1311.1"/>
				<line class="st20" x1="1687.5" y1="1312.3" x2="1707.5" y2="1312.3"/>
				<line class="st20" x1="1687.5" y1="1336" x2="1707.5" y2="1336"/>
				<line class="st20" x1="1687.5" y1="1359.7" x2="1707.5" y2="1359.7"/>
			</g>
			<line class="st21" x1="1685.4" y1="899.2" x2="1685.4" y2="1275.7"/>
		</g>
		<line class="st20" x1="1868" y1="1176" x2="2108.5" y2="1176"/>
	</g>
	<g id="BOOK">
		<polygon class="st2" points="1198.8,1569.5 1966.7,1569.5 1894.5,1374.2 1282,1374.2 		"/>
		<path class="st19" d="M1198.8,1569.5c0-27.6,73.2-77.5,192.1-84.3c127.3-7.2,194,72.8,192.1,84.3H1198.8z"/>
		<path class="st22" d="M1582.9,1569.5c0,0-33.8-158-330.5-125.8l64.1-155.9c0,0,243-44.2,266.5,86.4L1582.9,1569.5z"/>
		<path class="st22" d="M1962.2,1557.2c-17.7-24.5-85.9-50.1-187.5-55.9c-120.8-6.9-187,50.5-191.8,66.1v-193.2
			c0,0,86.2-98.4,311.6,0L1962.2,1557.2z"/>
		<path class="st1" d="M1858.5,1476.4c-25.2-6.4-55.7-11.2-90.5-13.2c-17.3-1-33.4-0.5-48.2,1.1c-36.7,4.1-65.6,15.1-86.2,26.9"/>
		<path class="st1" d="M1849.6,1443.1c-24.1-5.7-52.8-10-85.2-11.9c-17.3-1-33.4-0.5-48.2,1.1c-36.7,4.1-65.6,15.1-86.2,26.9"/>
		<path class="st1" d="M1841.4,1409.9c-23-5.1-49.7-8.9-79.7-10.7c-17.3-1-33.4-0.5-48.2,1.1c-36.7,4.1-65.6,15.1-86.2,26.9"/>
		<line class="st23" x1="1874.4" y1="1365.4" x2="1938" y2="1538.6"/>
		<path class="st19" d="M1966.8,1569.5h-383.9v-2.1c4.8-15.6,71-73,191.8-66.1c101.6,5.8,169.8,31.4,187.5,55.9L1966.8,1569.5z"/>
	</g>
	<g id="HEAD_1_">
		<g id="NECK">
			<path class="st5" d="M1820,740.8c0,0-71.6,37.3-171,22.3l0,0c-24.7-3.7-51.2-10.7-78.6-22.3V620.4l128.8-80.2l19.3,32.1
				L1820,740.8z"/>
			<path class="st12" d="M1706.3,549.7c7.7,14.3,9,31.3,3.4,46.6L1649,763.1l0,0c-24.7-3.7-51.2-10.7-78.6-22.3V620.4l129.4-82.7
				L1706.3,549.7z"/>
		</g>
		<path id="HAIR" class="st12" d="M1695.2,495.8c0,0,15.1-134.3-38.6-146.6c-41-9.4-61.4,21.5-61.4,21.5s-22.2-32.4-56.6-17.2
			c-32.7,14.4-30.4,59.3-15.7,55.7s-14.2-32.4-45.1-11.1c-34.2,23.5,0,62.3,0,62.3s-25.3-12.2-37,12.7
			c-14.5,30.9,68.3,97.5,68.3,97.5L1695.2,495.8z"/>
		<g id="HEAD">
			<path id="HEAD_2_" class="st5" d="M1613.4,430.9l-85.9,34.5c-20.7,8.3-30.8,32-22.5,52.6l37.5,93.5
				c13.8,34.5,53.4,51.3,87.8,37.5l35.7-14.3c34.5-13.8,51.3-53.4,37.5-87.8l-37.5-93.5C1657.7,432.7,1634,422.6,1613.4,430.9z"/>
			<g id="EARS">
				<path class="st5" d="M1720.8,539.9l-17.3,7l-18.8-46.8l17.3-7c10.3-4.1,21.9,0.9,26,11.1l3.9,9.7
					C1736.1,524.1,1731.1,535.7,1720.8,539.9z"/>
				<path class="st12" d="M1523.9,615.1l17.3-7l-17.5-43.5l-17.3,7c-10.3,4.1-15.2,15.8-11.1,26l2.6,6.4
					C1502,614.2,1513.6,619.2,1523.9,615.1z"/>
				<path class="st24" d="M1699.7,524.9c-3.2-8.1,0.7-17.2,8.8-20.5"/>
			</g>
			<g id="FACE">
				<path class="st24" d="M1615.6,481.6c0,0,20.3,7.6,46.1-4.6"/>
				<path class="st24" d="M1572.7,515.8c0,0,30.3-3.1,41.3,47.9"/>
				<path class="st24" d="M1658.7,580.3c0,0-44.7-12-43.1,11.1"/>
				
					<ellipse transform="matrix(0.9426 -0.3339 0.3339 0.9426 -80.153 580.6808)" class="st12" cx="1649.1" cy="523.5" rx="4.1" ry="10.1"/>
				
					<ellipse transform="matrix(0.9426 -0.3339 0.3339 0.9426 -96.3774 555.1151)" class="st12" cx="1566.6" cy="557.9" rx="4.1" ry="10.1"/>
			</g>
			<g id="GLASSES">
				<circle class="st25" cx="1651.5" cy="523.3" r="28.9"/>
				<circle class="st25" cx="1566.5" cy="556.3" r="28.9"/>
				<line class="st25" x1="1593.5" y1="545.9" x2="1624" y2="531.9"/>
			</g>
		</g>
	</g>
	<g id="ARMS">
		<g id="LEFT">
			<path class="st6" d="M1389.1,682.1c-1.7,3.9-11.3,4.9-25.8,2.9c-22.2-3-56-12.7-92-28.7c-20.6-9.2-39.3-18.6-54.7-27.4
				c-29.3-16.7-47-31.3-44.1-37.8l0,0c2.9-6.4,25.4-3.3,57.2,7c17.1,5.5,36.8,13.1,57.6,22.4c35.6,15.8,66.5,31.2,84.7,43.1
				C1384.4,671.6,1390.9,678.1,1389.1,682.1z"/>
			<path class="st12" d="M1558.8,479.3l-27.2,105.1l-24.5-61c-9.4-23.4,1.9-50.2,25-60L1558.8,479.3z"/>
			<path class="st5" d="M1559.8,477.4l-54,93.6c-6.2,10.8-17.8,17.5-30.3,17.5h-55.8c-8.2,0-15.5,5-18.6,12.5l-29,62.7l-8.5,18.3
				c-24.5-3.3-58.6-13.9-91.2-28.4c-12.2-5.4-24.1-11.1-35.1-16.8l14.7-30.7l26.3-54.9c12.6-29.7,34.3-54.7,62-71.3l54.4-32.7
				c7.2-4.3,15.5-6.6,23.9-6.6h92.4c5.1,0,10.1,1.1,14.6,3.3l27.8,13.2C1561.1,460.8,1564,470.1,1559.8,477.4z"/>
			<path class="st24" d="M1429.2,480.4h66c4.9,0,9.7,1.1,14.1,3.2l26.7,12.8c7.3,3.5,10.1,12.5,6.1,19.5"/>
			<path class="st24" d="M1412.8,508.8h66c4.9,0,9.7,1.1,14.1,3.2l26.7,12.8c7.3,3.5,10.1,12.5,6.1,19.5"/>
			<path class="st24" d="M1393.5,545.9h66c4.9,0,9.7,1.1,14.1,3.2l26.7,12.8c7.3,3.5,10.1,12.5,6.1,19.5"/>
			<path class="st12" d="M1363.7,682c-24.5-3.3-58.6-13.9-91.2-28.4c-12.2-5.4-24.1-11.1-35.1-16.8l16.6-33.9
				c11.1,4.2,22,9,34.2,14.5c35.6,15.8,66.7,32.3,84.9,44.2L1363.7,682z"/>
			<line class="st24" x1="1374" y1="585.8" x2="1420.8" y2="585.8"/>
		</g>
		<g id="RIGHT">
			<ellipse class="st17" cx="1867.6" cy="1273.7" rx="23.9" ry="99.7"/>
			<path class="st5" d="M1891.5,1273.7c0,17.1-1,33.2-2.9,47.3c-6.2,15.8-18.9,28.3-34.9,34.2c-6.5,2.4-13.6,3.8-21,3.8H1742
				c-11.4,0-20.7,9.3-20.7,20.7v2.8c0,16.7-17.8,27.5-32.6,19.7l-42.6-22.3c-7.6-4-12.4-11.9-12.4-20.5v-33.3
				c0-12.5,5.9-24.2,15.8-31.7l65-48.9c11-8.3,24.4-12.7,38.1-12.7h136.7C1890.8,1245.3,1891.5,1259.1,1891.5,1273.7z"/>
			<path class="st24" d="M1730.9,1265l-59.7,44.9c-9.1,6.9-14.5,17.7-14.5,29.1v30.6c0,7.9,4.4,15.2,11.4,18.8"/>
			<path class="st24" d="M1761.3,1278.4l-59.7,44.9c-9.1,6.9-14.5,17.7-14.5,29.1v30.6c0,7.9,4.4,15.2,11.4,18.8"/>
			<path class="st12" d="M1891.5,1273.7c0,17.1-1,33.2-2.9,47.3c-6.2,15.8-18.9,28.3-34.9,34.2c-6.1-18.1-10.1-47.8-10.1-81.5
				c0-14.6,0.8-28.4,2.1-40.9h43.7C1890.8,1245.3,1891.5,1259.1,1891.5,1273.7z"/>
		</g>
	</g>
</g>
<g id="CUP">
	<ellipse class="st13" cx="2065.2" cy="1409.9" rx="108.4" ry="9.1"/>
	<path class="st3" d="M2155.4,1416.8h-44.8c-41.6,0-75.2-33.7-75.2-75.2v-63.9h195.3v63.8C2230.7,1383.1,2197,1416.8,2155.4,1416.8z
		"/>
	<path class="st14" d="M2258,1332.4h-27.4v-48.7h27.4c11.7,0,21.3,9.5,21.3,21.3v6.2C2279.3,1322.9,2269.7,1332.4,2258,1332.4z"/>
	<ellipse class="st26" cx="2133" cy="1277" rx="98.5" ry="19.7"/>
	<g>
		<path class="st14" d="M2035.5,1293c0,10.9,43.7,19.7,97.5,19.7s97.5-8.8,97.5-19.7"/>
		<path class="st14" d="M2035.5,1313.9c0,10.9,43.7,19.7,97.5,19.7s97.5-8.8,97.5-19.7"/>
		<path class="st14" d="M2035.5,1334.8c0,10.9,43.7,19.7,97.5,19.7s97.5-8.8,97.5-19.7"/>
		<path class="st14" d="M2037,1355.7c0,10.9,43,19.7,96,19.7s96-8.8,96-19.7"/>
		<path class="st14" d="M2044.5,1376.6c0,10.9,39.6,19.7,88.5,19.7s88.5-8.8,88.5-19.7"/>
	</g>
	<path class="st20" d="M2129.1,1242c-9.6-6.6-39.5-69.5-2.5-95.2c28.4-19.8,33.9,31.5,20.8,27.2c-22.8-7.5-36.7-107.9,22.8-101.7
		c26.2,2.7,23.3,40,0,41"/>
</g>
<g id="LAPTOP">
	<path class="st3" d="M966.1,1535.8H474.6c-13.2,0-25-8-29.9-20.2l-134.5-332.4c-6.4-15.9,5.3-33.3,22.4-33.3h491.5
		c13.2,0,25,8,29.9,20.2l134.5,332.4C995,1518.4,983.3,1535.8,966.1,1535.8z"/>
	<path class="st13" d="M943.3,1538.2H474.4c-12.5,0-23.8-7.6-28.5-19.2l-128.3-317.1c-6.1-15.2,5-31.7,21.4-31.7h468.9
		c12.5,0,23.8,7.6,28.5,19.2l128.3,317.1C970.8,1521.7,959.6,1538.2,943.3,1538.2z"/>
	<g>
		<path class="st17" d="M655.4,1394c-13.8,0-26.8-5.4-36.6-15.2c-8-8-12.4-18.6-12.4-29.8c0-11.3,4.4-21.9,12.4-29.8
			c6.5-6.5,15.2-10.1,24.4-10.1c9.2,0,17.9,3.6,24.4,10.1c11.1,11.1,11.1,29.1,0,40.2c-9.2,9.2-24.1,9.2-33.3,0
			c-1.6-1.6-1.6-4.1,0-5.7s4.1-1.6,5.7,0c6.1,6.1,15.9,6.1,22,0c8-8,8-20.9,0-28.9c-5-5-11.7-7.8-18.8-7.8c-7.1,0-13.8,2.8-18.8,7.8
			c-6.5,6.5-10,15-10,24.2c0,9.1,3.6,17.7,10,24.2c8.3,8.3,19.2,12.8,30.9,12.8s22.7-4.5,30.9-12.8c1.6-1.6,4.1-1.6,5.7,0
			s1.6,4.1,0,5.7C682.2,1388.6,669.2,1394,655.4,1394z"/>
	</g>
	<path class="st3" d="M1142,1571H475.2c-7.7,0-13.9-6.2-13.9-13.9v-6.7c0-7.7,6.2-13.9,13.9-13.9H1142c7.7,0,13.9,6.2,13.9,13.9v6.7
		C1155.8,1564.8,1149.6,1571,1142,1571z"/>
</g>
</svg>
