<svg xmlns="http://www.w3.org/2000/svg" viewBox="0 0 678.03 843.04"><defs><style>.cls-1,.cls-5,.cls-6{fill:none;stroke:#000;stroke-miterlimit:10;}.cls-1{stroke-width:2px;}.cls-2{fill:#e2e2e2;}.cls-3{fill:#fadb93;}.cls-4{fill:#ab91df;}.cls-5{stroke-width:0.82px;}.cls-6{stroke-width:0.63px;}.cls-7{fill:#78e5e1;}</style></defs><title>ipad</title><g id="Layer_2" data-name="Layer 2"><g id="Layer_1-2" data-name="Layer 1"><rect class="cls-1" x="71.1" y="1" width="605.42" height="841.04" rx="51.02" ry="51.02"/><rect class="cls-2" x="69.59" y="89.36" width="608.44" height="631.6"/><circle class="cls-3" cx="373.81" cy="779.86" r="42.54"/><circle class="cls-4" cx="627.62" cy="146.52" r="11.85"/><circle class="cls-4" cx="627.62" cy="179.92" r="11.85"/><circle class="cls-4" cx="627.62" cy="213.33" r="11.85"/><circle class="cls-4" cx="627.62" cy="246.73" r="11.85"/><circle class="cls-4" cx="627.62" cy="280.14" r="11.85"/><circle class="cls-4" cx="627.62" cy="313.54" r="11.85"/><circle class="cls-5" cx="204.85" cy="226.03" r="75.66"/><line class="cls-6" x1="204.85" y1="226.03" x2="536.11" y2="226.03"/><line class="cls-6" y1="370.04" x2="532.8" y2="370.04"/><line class="cls-6" y1="405.16" x2="532.8" y2="405.16"/><line class="cls-6" y1="440.28" x2="532.8" y2="440.28"/><rect class="cls-7" x="114.71" y="578.45" width="101.39" height="101.39"/><rect class="cls-7" x="253.65" y="578.45" width="101.39" height="101.39"/><rect class="cls-7" x="392.58" y="578.45" width="101.39" height="101.39"/><rect class="cls-7" x="531.52" y="578.45" width="101.39" height="101.39"/></g></g></svg>