<svg xmlns="http://www.w3.org/2000/svg" viewBox="0 0 608 953.57"><defs><style>.cls-1{opacity:0.76;}.cls-2{fill:#7ce4df;}.cls-3{fill:#f7d999;}.cls-4,.cls-5{fill:none;}.cls-4{stroke:#000;stroke-miterlimit:10;stroke-width:3px;}.cls-5{stroke:#7ce4df;stroke-linecap:round;stroke-linejoin:round;stroke-width:5px;}.cls-6{fill:#ae95f8;}</style></defs><title>mouse</title><g id="Layer_2" data-name="Layer 2"><g id="Layer_1-2" data-name="Layer 1"><g class="cls-1"><rect class="cls-2" x="226" y="430.79" width="382" height="522.78" rx="125.22" ry="125.22"/></g><path d="M435.78,394.22A122.61,122.61,0,0,1,558,516.44V788.78A122.61,122.61,0,0,1,435.78,911H304.22A122.61,122.61,0,0,1,182,788.78V516.44A122.61,122.61,0,0,1,304.22,394.22H435.78m0-3H304.22C235.35,391.22,179,447.57,179,516.44V788.78C179,857.65,235.35,914,304.22,914H435.78C504.65,914,561,857.65,561,788.78V516.44c0-68.87-56.35-125.22-125.22-125.22Z"/><path class="cls-3" d="M370,391.22H304.22C235.35,391.22,179,447.57,179,516.44V543H370Z"/><line class="cls-4" x1="179.41" y1="543.11" x2="560.59" y2="543.11"/><path class="cls-5" d="M369.59,539.11V153.5H2.5V2.5"/><circle class="cls-6" cx="362.4" cy="718.42" r="14.38"/><circle class="cls-6" cx="402.91" cy="718.42" r="14.38"/><circle class="cls-6" cx="443.43" cy="718.42" r="14.38"/><circle class="cls-6" cx="483.94" cy="718.42" r="14.38"/><circle class="cls-6" cx="524.46" cy="718.42" r="14.38"/><circle class="cls-6" cx="564.97" cy="718.42" r="14.38"/><circle class="cls-6" cx="362.4" cy="802.07" r="14.38"/><circle class="cls-6" cx="402.91" cy="802.07" r="14.38"/><circle class="cls-6" cx="443.43" cy="802.07" r="14.38"/><circle class="cls-6" cx="483.94" cy="802.07" r="14.38"/><circle class="cls-6" cx="524.46" cy="802.07" r="14.38"/><circle class="cls-6" cx="564.97" cy="802.07" r="14.38"/><circle class="cls-6" cx="383.31" cy="760.24" r="14.38"/><circle class="cls-6" cx="423.82" cy="760.24" r="14.38"/><circle class="cls-6" cx="464.34" cy="760.24" r="14.38"/><circle class="cls-6" cx="504.85" cy="760.24" r="14.38"/><circle class="cls-6" cx="545.37" cy="760.24" r="14.38"/><circle class="cls-6" cx="585.88" cy="760.24" r="14.38"/><circle class="cls-6" cx="383.31" cy="843.89" r="14.38"/><circle class="cls-6" cx="423.82" cy="843.89" r="14.38"/><circle class="cls-6" cx="464.34" cy="843.89" r="14.38"/><circle class="cls-6" cx="504.85" cy="843.89" r="14.38"/><circle class="cls-6" cx="545.37" cy="843.89" r="14.38"/><circle class="cls-6" cx="585.88" cy="843.89" r="14.38"/></g></g></svg>